<svg width="202" height="50" viewBox="0 0 202 50" fill="none" xmlns="http://www.w3.org/2000/svg">
<path d="M0 4C0 2.34315 1.34315 1 3 1H199C200.657 1 202 2.34315 202 4V42.2096C202 43.7717 200.805 45.0713 199.248 45.1929C186.88 46.1592 135.549 50 101 50C66.4514 50 15.12 46.1592 2.75246 45.1929C1.19513 45.0713 0 43.7717 0 42.2096V4Z" fill="#1A1A1C"/>
<path d="M0 3C0 1.34315 1.34315 0 3 0H199C200.657 0 202 1.34315 202 3V40.4651C202 42.0517 200.774 43.3629 199.19 43.4542C186.721 44.173 135.495 47 101 47C66.5049 47 15.2789 44.173 2.81018 43.4542C1.22614 43.3629 0 42.0517 0 40.4651V3Z" fill="#0F0F12"/>
<path d="M0 3C0 1.34315 1.34315 0 3 0H199C200.657 0 202 1.34315 202 3V42.2343C202 43.7968 200.805 45.0965 199.247 45.2177C186.886 46.1796 135.61 50 101 50C66.3903 50 15.1139 46.1796 2.75304 45.2177C1.1953 45.0965 0 43.7968 0 42.2343V3Z" fill="url(#paint0_radial_2209_231)"/>
<defs>
<radialGradient id="paint0_radial_2209_231" cx="0" cy="0" r="1" gradientUnits="userSpaceOnUse" gradientTransform="translate(101) rotate(90) scale(50 202)">
<stop stop-color="white" stop-opacity="0.25"/>
<stop offset="1" stop-color="white" stop-opacity="0"/>
</radialGradient>
</defs>
</svg>
