<svg width="173" height="43" viewBox="0 0 173 43" fill="none" xmlns="http://www.w3.org/2000/svg">
<path d="M159.678 20.7612C158.493 20.1775 157.415 19.407 156.473 18.4728C155.532 17.5402 154.752 16.4687 154.158 15.2882C154.059 15.0931 153.86 14.9707 153.641 14.9707C153.421 14.9707 153.222 15.0931 153.123 15.2882C152.528 16.4671 151.749 17.5385 150.809 18.4728C149.868 19.4053 148.79 20.1758 147.604 20.7612C147.408 20.8587 147.282 21.0604 147.282 21.2804C147.282 21.5003 147.408 21.702 147.604 21.7996C148.788 22.3832 149.866 23.1537 150.809 24.088C151.749 25.0205 152.528 26.092 153.123 27.2709C153.222 27.466 153.421 27.5884 153.641 27.5884C153.86 27.5884 154.059 27.466 154.156 27.2709C154.752 26.092 155.53 25.0205 156.471 24.088C157.413 23.1554 158.491 22.3849 159.677 21.8012C159.875 21.7036 159.999 21.5019 159.999 21.282C159.999 21.0621 159.877 20.8587 159.678 20.7612ZM155.658 23.2645C154.881 24.035 154.204 24.8899 153.641 25.8191C153.077 24.8915 152.401 24.035 151.624 23.2662C150.852 22.5006 149.995 21.8359 149.069 21.2804C149.995 20.7248 150.852 20.0601 151.624 19.2945C152.401 18.524 153.077 17.6692 153.641 16.7399C154.206 17.6675 154.881 18.524 155.658 19.2945C156.43 20.0601 157.286 20.7248 158.213 21.2804C157.286 21.8343 156.43 22.499 155.658 23.2645Z" fill="#2A2A2C"/>
<path d="M51.6456 14.8682H50.4553V27.7487H51.6456V14.8682Z" fill="#2A2A2C"/>
<path d="M62.233 21.2539H61.8891L58.1379 14.8682H56.063V27.7487H57.255V16.1314H57.6155L61.4031 22.6064H62.6662L66.4356 16.1314H66.796V27.7487H67.9864V14.8682H65.8933L62.233 21.2539Z" fill="#2A2A2C"/>
<path d="M75.5568 14.8682L70.9575 27.7487H72.2024L73.6639 23.582H79.5974L81.0589 27.7487H82.3402L77.7226 14.8682H75.5568ZM74.0424 22.4989L76.2793 16.1314H76.9836L79.2205 22.4989H74.0424Z" fill="#2A2A2C"/>
<path d="M89.8756 22.1564H94.2402V22.6078C94.2402 23.8826 93.8946 24.9177 93.2036 25.7114C92.5125 26.505 91.4991 26.9019 90.1649 26.9019C89.3581 26.9019 88.6472 26.7448 88.0272 26.4323C87.4072 26.1198 86.9179 25.6981 86.5575 25.169C86.1971 24.6399 85.9259 24.048 85.7457 23.3916C85.5655 22.7351 85.4746 22.0423 85.4746 21.3082C85.4746 20.2979 85.6316 19.3835 85.9441 18.5667C86.2566 17.7483 86.779 17.0703 87.513 16.528C88.2471 15.9857 89.1432 15.7161 90.2013 15.7161C92.1124 15.7161 93.316 16.5098 93.8087 18.0971H95.0536C94.8006 17.0141 94.2517 16.1675 93.4036 15.5541C92.5555 14.9407 91.4891 14.6348 90.2013 14.6348C88.3496 14.6348 86.8997 15.2598 85.8548 16.5115C84.81 17.7631 84.2859 19.362 84.2859 21.3098C84.2859 23.2345 84.8034 24.8284 85.8366 26.09C86.8699 27.3533 88.3132 27.9832 90.1649 27.9832C90.9105 27.9832 91.5834 27.8774 92.1852 27.6674C92.787 27.4574 93.2879 27.1747 93.6913 26.8192C94.0947 26.4637 94.4303 26.0404 94.7014 25.5477C94.9726 25.0549 95.1677 24.5341 95.2883 23.9868C95.409 23.4395 95.4685 22.8591 95.4685 22.2457V21.0734H89.8772V22.1564H89.8756Z" fill="#2A2A2C"/>
<path d="M100.458 14.8682H99.2679V27.7487H100.458V14.8682Z" fill="#2A2A2C"/>
<path d="M113.949 26.4855H113.588L107.042 14.8682H104.876V27.7487H106.068V16.1314H106.428L112.975 27.7487H115.139V14.8682H113.949V26.4855Z" fill="#2A2A2C"/>
<path d="M122.711 14.8682L118.112 27.7487H119.357L120.818 23.582H126.752L128.213 27.7487H129.494L124.877 14.8682H122.711ZM121.195 22.4989L123.432 16.1314H124.136L126.373 22.4989H121.195Z" fill="#2A2A2C"/>
<path d="M130.21 15.9148H134.558V27.7487H135.749V15.9148H140.077V14.8682H130.21V15.9148Z" fill="#2A2A2C"/>
<path d="M144.331 14.8682H143.14V27.7487H144.331V14.8682Z" fill="#2A2A2C"/>
<path d="M171.81 14.835V26.4523H171.449L164.902 14.835H162.737V27.7155H163.929V16.0982H164.289L170.836 27.7155H173V14.835H171.81Z" fill="#2A2A2C"/>
<path d="M17.4182 28.1375C15.6311 27.2777 14.0572 25.9731 12.604 24.1526C11.412 22.6579 10.3026 20.8358 9.00645 18.2448C9.0048 18.2414 9.00315 18.2398 9.00149 18.2365C8.21454 16.7203 6.88532 15.6984 5.35274 15.4355C4.65837 15.3165 3.96731 15.3578 3.29774 15.5579C2.60833 15.7645 1.98174 16.1283 1.43451 16.6392C0.429329 17.5371 -0.0765684 18.8169 0.00940118 20.2438C0.0490795 20.887 0.204486 21.5352 0.473968 22.1685C0.73849 22.7935 1.10055 23.3738 1.54693 23.893C1.55024 23.8963 1.55355 23.9013 1.55851 23.9046C2.42978 24.8686 3.48621 25.7499 4.6964 26.5254C5.88509 27.2876 7.18952 27.9242 8.56999 28.4202C9.97361 28.9229 11.4136 29.2635 12.8536 29.4322C13.5463 29.5132 14.2308 29.5545 14.9053 29.5545C15.6972 29.5545 16.4726 29.4983 17.2281 29.3859C17.5158 29.3429 17.7406 29.118 17.7853 28.8303C17.8283 28.5459 17.6795 28.2632 17.4182 28.1375Z" fill="#06D6A0"/>
<path d="M40.784 19.3997C39.7673 18.2721 38.6133 17.28 37.3585 16.4516C36.1384 15.6464 34.8191 14.9949 33.4369 14.5121C30.719 13.5646 27.7762 13.2868 24.9259 13.7101C24.6383 13.7531 24.4134 13.978 24.3688 14.2657C24.3258 14.5534 24.4746 14.8345 24.7358 14.9602C26.5131 15.815 28.1994 17.2287 29.7485 19.1583C31.0562 20.787 32.2251 22.7431 33.1294 24.8182C33.427 25.5275 33.9065 26.1575 34.5165 26.6387C35.0935 27.0934 35.7862 27.4158 36.5186 27.5745C36.8608 27.6489 37.2113 27.6853 37.5585 27.6853C37.9503 27.6853 38.3405 27.639 38.7141 27.5448C39.4647 27.3579 40.1574 26.9826 40.7179 26.4601C41.1791 26.0484 41.5412 25.5573 41.7925 25.0017C42.0289 24.4809 42.1645 23.9154 42.1942 23.3185C42.2686 21.9114 41.7413 20.448 40.784 19.3997Z" fill="#FF4F79"/>
<path d="M31.0676 2.53975C30.2327 1.38397 28.9283 0.573766 27.2982 0.195121C27.285 0.191814 27.2717 0.19016 27.2585 0.186853C26.0434 -0.016524 24.8183 -0.0545538 23.6147 0.0760706C22.4607 0.200081 21.3216 0.477865 20.2321 0.901154C18.1358 1.71632 16.2379 3.06555 14.7417 4.80666C13.2455 6.54777 12.194 8.62949 11.7013 10.8253C11.4451 11.9662 11.3409 13.1336 11.3921 14.2943C11.4451 15.503 11.6649 16.71 12.0485 17.879C12.1328 18.1353 12.3643 18.3155 12.6337 18.3337C12.6486 18.3354 12.6635 18.3354 12.6784 18.3354C12.9313 18.3354 13.1628 18.1915 13.2736 17.9617C15.5914 13.1484 18.9674 11.0022 24.2198 11.0022C24.3438 11.0022 25.0216 11.0006 25.6201 10.9989C26.1178 10.9973 26.5873 10.9956 26.6567 10.9956C26.6617 10.9956 26.6666 10.9956 26.6733 10.9956C28.1513 10.9609 29.454 10.4351 30.4394 9.47772C31.3371 8.60469 31.9025 7.42741 32.0315 6.16251C32.1604 4.86618 31.8182 3.57978 31.0676 2.53975Z" fill="#F4E04D"/>
<path d="M30.8096 28.6347C30.7567 27.426 30.5368 26.219 30.1533 25.05C30.0689 24.7937 29.8375 24.6135 29.568 24.5953C29.2985 24.5771 29.0456 24.7242 28.9282 24.9673C26.6103 29.7806 23.2344 31.9268 17.982 31.9268C17.858 31.9268 17.1801 31.9284 16.5816 31.9301C16.084 31.9317 15.6145 31.9334 15.545 31.9334C15.5401 31.9334 15.5351 31.9334 15.5285 31.9334C14.0505 31.9697 12.7477 32.4939 11.7624 33.4529C10.8647 34.3259 10.2992 35.5032 10.1703 36.7698C10.038 38.0661 10.3803 39.3525 11.1308 40.3925C11.9657 41.5483 13.2702 42.3585 14.9003 42.7355C14.9135 42.7388 14.9267 42.7405 14.9399 42.7438C15.6839 42.8678 16.4328 42.9306 17.1768 42.9306C17.648 42.9306 18.1175 42.9058 18.5837 42.8562C19.7377 42.7322 20.8768 42.4544 21.9663 42.0311C24.0626 41.216 25.9606 39.8667 27.4568 38.1256C28.953 36.3845 30.0045 34.3028 30.4971 32.1053C30.7567 30.9628 30.8609 29.7954 30.8096 28.6347Z" fill="#7692FF"/>
<path d="M27.1744 20.4316C25.9973 19.8512 24.926 19.0873 23.9903 18.1597C23.0545 17.2321 22.2808 16.1689 21.6906 14.9966C21.5781 14.7734 21.35 14.6328 21.1004 14.6328C20.8507 14.6328 20.6226 14.7734 20.5101 14.9966C19.9199 16.1672 19.1462 17.2321 18.2104 18.1597C17.2747 19.0873 16.205 19.8512 15.0279 20.4332C14.8031 20.544 14.6592 20.7738 14.6592 21.0268C14.6592 21.2798 14.8014 21.508 15.0279 21.6204C16.205 22.2008 17.2747 22.9647 18.2104 23.8923C19.1462 24.8199 19.9183 25.8831 20.5101 27.0537C20.6226 27.2769 20.8507 27.4175 21.1004 27.4175C21.35 27.4175 21.5781 27.2769 21.6906 27.0537C22.2808 25.8831 23.0545 24.8182 23.9903 23.8923C24.926 22.9647 25.9973 22.2008 27.1744 21.6204C27.4009 21.5096 27.5431 21.2798 27.5431 21.0268C27.5431 20.7738 27.4009 20.544 27.1744 20.4316Z" fill="#2A2A2C"/>
</svg>
