<svg width="137" height="34" viewBox="0 0 137 34" fill="none" xmlns="http://www.w3.org/2000/svg">
<path d="M126.424 16.4423C125.485 15.9801 124.632 15.3698 123.885 14.63C123.141 13.8914 122.523 13.0429 122.053 12.1079C121.974 11.9533 121.817 11.8564 121.643 11.8564C121.469 11.8564 121.312 11.9533 121.234 12.1079C120.762 13.0415 120.146 13.8901 119.401 14.63C118.656 15.3685 117.803 15.9788 116.864 16.4423C116.708 16.5196 116.609 16.6794 116.609 16.8535C116.609 17.0277 116.708 17.1874 116.864 17.2647C117.801 17.727 118.655 18.3372 119.401 19.0771C120.146 19.8156 120.762 20.6642 121.234 21.5979C121.312 21.7524 121.469 21.8493 121.643 21.8493C121.817 21.8493 121.974 21.7524 122.052 21.5979C122.523 20.6642 123.139 19.8156 123.884 19.0771C124.63 18.3385 125.484 17.7283 126.422 17.266C126.579 17.1888 126.677 17.029 126.677 16.8548C126.677 16.6807 126.581 16.5196 126.424 16.4423ZM123.24 18.4249C122.625 19.0352 122.09 19.7122 121.643 20.4481C121.197 19.7135 120.662 19.0352 120.046 18.4262C119.435 17.8199 118.757 17.2935 118.024 16.8535C118.757 16.4135 119.435 15.8871 120.046 15.2808C120.662 14.6706 121.197 13.9936 121.643 13.2576C122.091 13.9922 122.625 14.6706 123.24 15.2808C123.851 15.8871 124.529 16.4135 125.264 16.8535C124.529 17.2922 123.851 17.8186 123.24 18.4249Z" fill="#2A2A2C"/>
<path d="M40.8889 11.7754H39.9473V21.9764H40.8889V11.7754Z" fill="#2A2A2C"/>
<path d="M49.2725 16.8327H49.0002L46.0302 11.7754H44.3875V21.9764H45.3312V12.7759H45.6166L48.6154 17.9039H49.6154L52.5999 12.7759H52.8852V21.9764H53.8277V11.7754H52.1705L49.2725 16.8327Z" fill="#2A2A2C"/>
<path d="M59.8213 11.7754L56.1798 21.9764H57.1655L58.3226 18.6765H63.0204L64.1775 21.9764H65.192L61.5361 11.7754H59.8213ZM58.6223 17.8188L60.3933 12.7759H60.951L62.722 17.8188H58.6223Z" fill="#2A2A2C"/>
<path d="M71.1581 17.5478H74.6137V17.9052C74.6137 18.9149 74.3401 19.7346 73.793 20.3632C73.2458 20.9918 72.4434 21.306 71.3871 21.306C70.7484 21.306 70.1855 21.1816 69.6946 20.9341C69.2038 20.6866 68.8163 20.3527 68.531 19.9337C68.2456 19.5146 68.031 19.0458 67.8883 18.526C67.7456 18.0061 67.6736 17.4574 67.6736 16.876C67.6736 16.0759 67.798 15.3517 68.0454 14.7048C68.2928 14.0566 68.7064 13.5197 69.2876 13.0902C69.8687 12.6607 70.5782 12.4472 71.4159 12.4472C72.9291 12.4472 73.882 13.0758 74.2721 14.3329H75.2577C75.0574 13.4752 74.6229 12.8047 73.9514 12.3189C73.2799 11.8331 72.4356 11.5908 71.4159 11.5908C69.9499 11.5908 68.8019 12.0858 67.9747 13.0771C67.1474 14.0684 66.7325 15.3347 66.7325 16.8773C66.7325 18.4016 67.1422 19.6639 67.9603 20.6631C68.7784 21.6635 69.9211 22.1624 71.3871 22.1624C71.9775 22.1624 72.5102 22.0786 72.9867 21.9123C73.4631 21.746 73.8597 21.5221 74.1791 21.2406C74.4985 20.959 74.7642 20.6238 74.9789 20.2335C75.1936 19.8433 75.348 19.4308 75.4436 18.9974C75.5391 18.5639 75.5862 18.1043 75.5862 17.6185V16.69H71.1594V17.5478H71.1581Z" fill="#2A2A2C"/>
<path d="M79.536 11.7754H78.5944V21.9764H79.536V11.7754Z" fill="#2A2A2C"/>
<path d="M90.2177 20.976H89.9323L84.7488 11.7754H83.0341V21.9764H83.9779V12.7759H84.2632L89.4467 21.9764H91.1601V11.7754H90.2177V20.976Z" fill="#2A2A2C"/>
<path d="M97.1552 11.7754L93.5137 21.9764H94.4994L95.6565 18.6765H100.354L101.511 21.9764H102.526L98.8699 11.7754H97.1552ZM95.9549 17.8188L97.7259 12.7759H98.2835L100.055 17.8188H95.9549Z" fill="#2A2A2C"/>
<path d="M103.093 12.6043H106.535V21.9764H107.478V12.6043H110.905V11.7754H103.093V12.6043Z" fill="#2A2A2C"/>
<path d="M114.272 11.7754H113.33V21.9764H114.272V11.7754Z" fill="#2A2A2C"/>
<path d="M136.029 11.749V20.9496H135.743L130.56 11.749H128.845V21.9501H129.789V12.7495H130.074L135.258 21.9501H136.971V11.749H136.029Z" fill="#2A2A2C"/>
<path d="M13.5739 22.7346L13.5739 22.7346C12.0801 22.0157 10.7773 20.93 9.58825 19.44L9.5881 19.4398C8.61684 18.2215 7.72261 16.749 6.69107 14.6879C6.68847 14.6832 6.68576 14.6783 6.68304 14.673C6.12363 13.5949 5.19545 12.896 4.15347 12.7172L13.5739 22.7346ZM13.5739 22.7346C13.5779 22.7365 13.5816 22.7398 13.5843 22.7449C13.5869 22.7497 13.5874 22.754 13.587 22.7572C13.5847 22.7696 13.576 22.7767 13.5666 22.7782C12.9937 22.8635 12.4044 22.9063 11.8011 22.9063C11.2875 22.9063 10.7651 22.8748 10.2349 22.8128C9.13385 22.6838 8.03092 22.4231 6.95434 22.0375C5.8949 21.6567 4.89619 21.1688 3.98829 20.5864L3.98815 20.5863C3.0632 19.9935 2.26183 19.3235 1.60492 18.5965L1.58509 18.5746C1.27337 18.2075 1.02088 17.7995 0.83574 17.3619L0.835358 17.361C0.643122 16.9091 0.534281 16.4515 0.506518 16.0021C0.4471 15.014 0.794946 14.1528 1.4689 13.5506L1.46898 13.5507M13.5739 22.7346L1.46898 13.5507M1.46898 13.5507L1.47704 13.5432M1.46898 13.5507L1.47704 13.5432M1.47704 13.5432C1.85637 13.1889 2.28544 12.941 2.75439 12.8003C3.21011 12.6641 3.67921 12.6359 4.15342 12.7172L1.47704 13.5432ZM6.71141 14.7213C6.71198 14.7222 6.71238 14.7228 6.71258 14.7231L6.71273 14.7233C6.71287 14.7235 6.71238 14.7228 6.71141 14.7213Z" stroke="#2A2A2C"/>
<path d="M31.9189 15.6993L31.919 15.6993C31.1422 14.8376 30.2608 14.0796 29.3027 13.447L31.9189 15.6993ZM31.9189 15.6993L31.9211 15.7017M31.9189 15.6993L31.9211 15.7017M31.9211 15.7017C32.5896 16.4341 32.9593 17.4624 32.9076 18.4417L32.9075 18.4432C32.887 18.8555 32.7937 19.2414 32.6335 19.5946L32.6332 19.5952C32.4635 19.9705 32.219 20.3028 31.905 20.5832L31.9049 20.5831L31.897 20.5905C31.5158 20.946 31.0432 21.2024 30.5307 21.33L30.5292 21.3304C30.2755 21.3944 30.0078 21.4265 29.7366 21.4265C29.4963 21.4265 29.2545 21.4013 29.0195 21.3502L29.0192 21.3501M31.9211 15.7017L29.0192 21.3501M26.691 19.4624L26.691 19.4624C26.8936 19.9455 27.2208 20.376 27.6376 20.7049L26.691 19.4624ZM26.691 19.4624L26.6883 19.4561M26.691 19.4624L26.6883 19.4561M26.6883 19.4561C25.956 17.7754 25.0083 16.1875 23.943 14.8604C22.6816 13.2886 21.2906 12.1146 19.8011 11.398M26.6883 19.4561L19.7881 11.3737C19.787 11.3848 19.7927 11.3939 19.8011 11.398M29.0192 21.3501C28.5113 21.24 28.033 21.0165 27.6378 20.705L29.0192 21.3501ZM19.8011 11.398L19.5845 11.8483L19.8011 11.398ZM26.3084 11.9657C27.3641 12.3346 28.3714 12.8322 29.3027 13.4469L26.3084 11.9657Z" stroke="#2A2A2C"/>
<path d="M9.53926 14.1597L10.0142 14.0035C10.0176 14.0136 10.0267 14.0203 10.0363 14.0209L10.0387 14.0211C10.0477 14.0208 10.055 14.016 10.0587 14.0081C11.005 12.0427 12.1867 10.5821 13.7029 9.61791C15.2198 8.6532 17.0273 8.21346 19.1758 8.21346C19.2731 8.21346 19.8088 8.21215 20.2831 8.21084M9.53926 14.1597L20.2845 8.71084M9.53926 14.1597C9.60601 14.3627 9.78927 14.5054 10.0026 14.5198L9.53926 14.1597ZM9.53926 14.1597L10.0144 14.0039C9.72479 13.1211 9.559 12.2102 9.51912 11.2988L9.51911 11.2986C9.4805 10.4239 9.55896 9.54362 9.75223 8.68288L9.75225 8.68277M9.53926 14.1597L9.75225 8.68277M20.2831 8.21084L20.2845 8.71084M20.2831 8.21084C20.283 8.21084 20.2829 8.21084 20.2828 8.21084L20.2845 8.71084M20.2831 8.21084C20.3757 8.21053 20.4673 8.21022 20.5538 8.20993C20.8343 8.20899 21.0623 8.20822 21.1052 8.20822H21.1052H21.1052H21.1053H21.1053H21.1053H21.1053H21.1053H21.1054H21.1054H21.1054H21.1054H21.1055H21.1055H21.1055H21.1055H21.1056H21.1056H21.1056H21.1056H21.1056H21.1057H21.1057H21.1057H21.1057H21.1058H21.1058H21.1058H21.1058H21.1059H21.1059H21.1059H21.1059H21.1059H21.106H21.106H21.106H21.106H21.1061H21.1061H21.1061H21.1061H21.1061H21.1062H21.1062H21.1062H21.1062H21.1063H21.1063H21.1063H21.1063H21.1064H21.1064H21.1064H21.1064H21.1065H21.1065H21.1065H21.1065H21.1065H21.1066H21.1066H21.1066H21.1066H21.1067H21.1067H21.1067H21.1067H21.1068H21.1068H21.1068H21.1068H21.1068H21.1069H21.1069H21.1069H21.1069H21.107H21.107H21.107H21.107H21.1071H21.1071H21.1071H21.1071H21.1071H21.1072H21.1072H21.1072H21.1072H21.1073H21.1073H21.1073H21.1073H21.1074H21.1074H21.1074H21.1074H21.1074H21.1075H21.1075H21.1075H21.1075H21.1076H21.1076H21.1076H21.1076H21.1077H21.1077H21.1077H21.1077H21.1077H21.1078H21.1078H21.1078H21.1078H21.1079H21.1079H21.1079H21.1079H21.108H21.108H21.108H21.108H21.1081H21.1081H21.1081H21.1081H21.1081H21.1082H21.1082H21.1082H21.1082H21.1083H21.1083H21.1083H21.1083H21.1084H21.1084H21.1084H21.1084H21.1085H21.1085H21.1085H21.1085H21.1085H21.1086H21.1086H21.1086H21.1086H21.1087H21.1087H21.1087H21.1087H21.1088H21.1088H21.1088H21.1088H21.1089H21.1089H21.1089H21.1089H21.109H21.109H21.109H21.109H21.109H21.1091H21.1091H21.1091H21.1091H21.1092H21.1092H21.1092H21.1092H21.1093H21.1093H21.1093H21.1093H21.1094H21.1094H21.1094H21.1094H21.1095H21.1095H21.1095H21.1095H21.1095H21.1096H21.1096H21.1096H21.1096H21.1097H21.1097H21.1097H21.1097H21.1098H21.1098H21.1098H21.1098H21.1099H21.1099H21.1099H21.1099H21.11H21.11H21.11H21.11H21.1101H21.1101H21.1101H21.1101H21.1102H21.1102H21.1102H21.1102H21.1103H21.1103H21.1103H21.1103H21.1103H21.1104H21.1104H21.1104H21.1104H21.1105H21.1105H21.1105H21.1105H21.1106H21.1106H21.1106H21.1106H21.1107H21.1107H21.1107H21.1107H21.1108H21.1108H21.1108H21.1108H21.1109H21.1109H21.1109H21.1109H21.111H21.111H21.111H21.111H21.1111H21.1111H21.1111H21.1111H21.1112H21.1112H21.1112H21.1112H21.1113H21.1113H21.1113H21.1113H21.1114H21.1114H21.1114H21.1114H21.1115H21.1115H21.1115H21.1115H21.1116H21.1116H21.1116H21.1116H21.1117H21.1117H21.1117H21.1117H21.1118H21.1118H21.1118H21.1118H21.1119H21.1119H21.1119H21.1119H21.112H21.112H21.112H21.112H21.1121H21.1121H21.1121H21.1121H21.1122H21.1122H21.1122H21.1122H21.1123M20.2845 8.71084C20.3775 8.71053 20.4693 8.71022 20.556 8.70993C20.8364 8.70898 21.0632 8.70822 21.1052 8.70822H21.1183M21.1123 8.20822C21.1104 8.20827 21.1084 8.20831 21.1065 8.20836L21.1183 8.70822M21.1123 8.20822H21.1123H21.1123H21.1123H21.1123H21.1124H21.1124H21.1124H21.1125H21.1125H21.1125H21.1125H21.1126H21.1126H21.1126H21.1126H21.1127H21.1127H21.1127H21.1127H21.1128H21.1128H21.1128H21.1128H21.1129H21.1129H21.1129H21.1129H21.113H21.113H21.113H21.113H21.1131H21.1131H21.1131H21.1132H21.1132H21.1132H21.1132H21.1133H21.1133H21.1133H21.1133H21.1134H21.1134H21.1134H21.1134H21.1135H21.1135H21.1135H21.1135H21.1136H21.1136H21.1136H21.1137H21.1137H21.1137H21.1137H21.1138H21.1138H21.1138H21.1138H21.1139H21.1139H21.1139H21.1139H21.114H21.114H21.114H21.1141H21.1141H21.1141H21.1141H21.1142H21.1142H21.1142H21.1142H21.1143H21.1143H21.1143H21.1144H21.1144H21.1144H21.1144H21.1145H21.1145H21.1145H21.1145H21.1146H21.1146H21.1146H21.1147H21.1147H21.1147H21.1147H21.1148H21.1148H21.1148H21.1148H21.1149H21.1149H21.1149H21.115H21.115H21.115H21.115H21.1151H21.1151H21.1151H21.1151H21.1152H21.1152H21.1152H21.1153H21.1153H21.1153H21.1153H21.1154H21.1154H21.1154H21.1155H21.1155H21.1155H21.1155H21.1156H21.1156H21.1156H21.1157H21.1157H21.1157H21.1157H21.1158H21.1158H21.1158H21.1159H21.1159H21.1159H21.1159H21.116H21.116H21.116H21.1161H21.1161H21.1161H21.1161H21.1162H21.1162H21.1162H21.1163H21.1163H21.1163H21.1163H21.1164H21.1164H21.1164H21.1165H21.1165H21.1165H21.1165H21.1166H21.1166H21.1166H21.1167H21.1167H21.1167H21.1167H21.1168H21.1168H21.1168H21.1169H21.1169H21.1169H21.117H21.117H21.117H21.117H21.1171H21.1171H21.1171H21.1172H21.1172H21.1172H21.1172H21.1173H21.1173H21.1173H21.1174H21.1174H21.1174H21.1175H21.1175H21.1175H21.1175H21.1176H21.1176H21.1176H21.1177H21.1177H21.1177H21.1178H21.1178H21.1178H21.1178H21.1179H21.1179H21.1179H21.118H21.118H21.118H21.1181H21.1181H21.1181H21.1182H21.1182H21.1182H21.1182H21.1183V8.70822M21.1123 8.20822L21.1183 8.70822M21.5026 0.642195C22.6962 0.920087 23.6144 1.50418 24.1921 2.30414L21.5026 0.642195ZM21.5026 0.642195L21.4899 0.639727C21.4888 0.639504 21.4877 0.639265 21.4864 0.63901C20.5725 0.487155 19.6528 0.459385 18.7507 0.557325L18.7501 0.557382C17.8806 0.650857 17.0217 0.860308 16.1998 1.17968L21.5026 0.642195ZM9.75225 8.68277C10.124 7.02531 10.9185 5.4506 12.0508 4.13256C13.1829 2.81473 14.618 1.79498 16.1997 1.17973L9.75225 8.68277ZM23.7516 7.14753C23.7515 7.14759 23.7515 7.14764 23.7514 7.1477L24.1001 7.50609L23.7516 7.14753ZM24.8631 4.8303C24.8631 4.83055 24.8631 4.8308 24.8631 4.83105L25.3606 4.88053L24.8632 4.82984C24.8632 4.82999 24.8631 4.83015 24.8631 4.8303Z" stroke="#2A2A2C"/>
<path d="M23.8937 22.6999L23.8937 22.6997C23.8538 21.7885 23.688 20.8777 23.3986 19.9951C23.3952 19.9849 23.3861 19.9783 23.3765 19.9776C23.3668 19.9769 23.3581 19.982 23.3539 19.9908L22.9036 19.7734M23.8937 22.6999L13.1283 25.2877M23.8937 22.6999C23.9323 23.5746 23.8538 24.4545 23.6582 25.3158L23.6579 25.3172M23.8937 22.6999L23.6579 25.3172M22.9036 19.7734L23.3541 19.9903C22.4079 21.9558 21.2261 23.4164 19.7099 24.3806C18.1929 25.3453 16.3855 25.7851 14.237 25.7851C14.1397 25.7851 13.604 25.7864 13.1297 25.7877M22.9036 19.7734C22.9965 19.5809 23.1968 19.4643 23.4102 19.4787C23.6235 19.4931 23.8068 19.6359 23.8735 19.8389C24.1772 20.7647 24.3513 21.7206 24.3932 22.6779C24.4338 23.5971 24.3513 24.5216 24.1458 25.4265L22.9036 19.7734ZM13.1297 25.7877L13.1283 25.2877M13.1297 25.7877C13.1298 25.7877 13.1299 25.7877 13.13 25.7877L13.1283 25.2877M13.1297 25.7877C13.0381 25.788 12.9476 25.7883 12.862 25.7886C12.5801 25.7895 12.3506 25.7903 12.3076 25.7903H12.3076H12.3076H12.3075H12.3075H12.3075H12.3075H12.3074H12.3074H12.3074H12.3074H12.3073H12.3073H12.3073H12.3073H12.3073H12.3072H12.3072H12.3072H12.3072H12.3071H12.3071H12.3071H12.3071H12.307H12.307H12.307H12.307H12.307H12.3069H12.3069H12.3069H12.3069H12.3068H12.3068H12.3068H12.3068H12.3067H12.3067H12.3067H12.3067H12.3067H12.3066H12.3066H12.3066H12.3066H12.3065H12.3065H12.3065H12.3065H12.3064H12.3064H12.3064H12.3064H12.3064H12.3063H12.3063H12.3063H12.3063H12.3062H12.3062H12.3062H12.3062H12.3061H12.3061H12.3061H12.3061H12.3061H12.306H12.306H12.306H12.306H12.3059H12.3059H12.3059H12.3059H12.3058H12.3058H12.3058H12.3058H12.3058H12.3057H12.3057H12.3057H12.3057H12.3056H12.3056H12.3056H12.3056H12.3055H12.3055H12.3055H12.3055H12.3055H12.3054H12.3054H12.3054H12.3054H12.3053H12.3053H12.3053H12.3053H12.3052H12.3052H12.3052H12.3052H12.3051H12.3051H12.3051H12.3051H12.3051H12.305H12.305H12.305H12.305H12.3049H12.3049H12.3049H12.3049H12.3048H12.3048H12.3048H12.3048H12.3048H12.3047H12.3047H12.3047H12.3047H12.3046H12.3046H12.3046H12.3046H12.3045H12.3045H12.3045H12.3045H12.3044H12.3044H12.3044H12.3044H12.3044H12.3043H12.3043H12.3043H12.3043H12.3042H12.3042H12.3042H12.3042H12.3041H12.3041H12.3041H12.3041H12.304H12.304H12.304H12.304H12.304H12.3039H12.3039H12.3039H12.3039H12.3038H12.3038H12.3038H12.3038H12.3037H12.3037H12.3037H12.3037H12.3036H12.3036H12.3036H12.3036H12.3035H12.3035H12.3035H12.3035H12.3034H12.3034H12.3034H12.3034H12.3034H12.3033H12.3033H12.3033H12.3033H12.3032H12.3032H12.3032H12.3032H12.3031H12.3031H12.3031H12.3031H12.303H12.303H12.303H12.303H12.3029H12.3029H12.3029H12.3029H12.3028H12.3028H12.3028H12.3028H12.3028H12.3027H12.3027H12.3027H12.3027H12.3026H12.3026H12.3026H12.3026H12.3025H12.3025H12.3025H12.3025H12.3024H12.3024H12.3024H12.3024H12.3023H12.3023H12.3023H12.3023H12.3022H12.3022H12.3022H12.3022H12.3021H12.3021H12.3021H12.3021H12.302H12.302H12.302H12.302H12.3019H12.3019H12.3019H12.3019H12.3018H12.3018H12.3018H12.3018H12.3017H12.3017H12.3017H12.3017H12.3016H12.3016H12.3016H12.3016H12.3015H12.3015H12.3015H12.3015H12.3014H12.3014H12.3014H12.3014H12.3013H12.3013H12.3013H12.3013H12.3012H12.3012H12.3012H12.3012H12.3011H12.3011H12.3011H12.3011H12.301H12.301H12.301H12.301H12.3009H12.3009H12.3009H12.3009H12.3008H12.3008H12.3008M13.1283 25.2877C13.0356 25.288 12.9442 25.2883 12.8578 25.2886C12.577 25.2896 12.3496 25.2903 12.3076 25.2903H12.2945M12.3008 25.7903C12.3028 25.7903 12.3048 25.7902 12.3068 25.7902L12.2945 25.2903M12.3008 25.7903C11.2482 25.8176 10.3425 26.189 9.6615 26.852L9.66135 26.8521C9.03625 27.4602 8.64002 28.283 8.54962 29.1712L8.54961 29.1714C8.45715 30.0778 8.69649 30.974 9.21804 31.697M12.3008 25.7903H12.3008H12.3008H12.3007H12.3007H12.3007H12.3007H12.3006H12.3006H12.3006H12.3006H12.3005H12.3005H12.3005H12.3005H12.3004H12.3004H12.3004H12.3004H12.3003H12.3003H12.3003H12.3003H12.3002H12.3002H12.3002H12.3002H12.3001H12.3001H12.3001H12.3H12.3H12.3H12.3H12.2999H12.2999H12.2999H12.2999H12.2998H12.2998H12.2998H12.2998H12.2997H12.2997H12.2997H12.2997H12.2996H12.2996H12.2996H12.2996H12.2995H12.2995H12.2995H12.2994H12.2994H12.2994H12.2994H12.2993H12.2993H12.2993H12.2993H12.2992H12.2992H12.2992H12.2992H12.2991H12.2991H12.2991H12.299H12.299H12.299H12.299H12.2989H12.2989H12.2989H12.2989H12.2988H12.2988H12.2988H12.2988H12.2987H12.2987H12.2987H12.2986H12.2986H12.2986H12.2986H12.2985H12.2985H12.2985H12.2985H12.2984H12.2984H12.2984H12.2983H12.2983H12.2983H12.2983H12.2982H12.2982H12.2982H12.2982H12.2981H12.2981H12.2981H12.298H12.298H12.298H12.298H12.2979H12.2979H12.2979H12.2979H12.2978H12.2978H12.2978H12.2977H12.2977H12.2977H12.2977H12.2976H12.2976H12.2976H12.2976H12.2975H12.2975H12.2975H12.2974H12.2974H12.2974H12.2974H12.2973H12.2973H12.2973H12.2972H12.2972H12.2972H12.2972H12.2971H12.2971H12.2971H12.297H12.297H12.297H12.297H12.2969H12.2969H12.2969H12.2968H12.2968H12.2968H12.2968H12.2967H12.2967H12.2967H12.2966H12.2966H12.2966H12.2966H12.2965H12.2965H12.2965H12.2964H12.2964H12.2964H12.2964H12.2963H12.2963H12.2963H12.2962H12.2962H12.2962H12.2962H12.2961H12.2961H12.2961H12.296H12.296H12.296H12.2959H12.2959H12.2959H12.2959H12.2958H12.2958H12.2958H12.2957H12.2957H12.2957H12.2957H12.2956H12.2956H12.2956H12.2955H12.2955H12.2955H12.2954H12.2954H12.2954H12.2954H12.2953H12.2953H12.2953H12.2952H12.2952H12.2952H12.2951H12.2951H12.2951H12.2951H12.295H12.295H12.295H12.2949H12.2949H12.2949H12.2948H12.2948H12.2948H12.2948H12.2947H12.2947H12.2947H12.2946H12.2946H12.2946H12.2945H12.2945V25.2903M12.2945 25.2903L9.21804 31.697M9.21804 31.697L8.81269 31.9897L9.21817 31.6972C9.21813 31.6971 9.21809 31.6971 9.21804 31.697ZM9.21804 31.697C9.79579 32.497 10.7141 33.0811 11.9074 33.3576M9.21804 31.697L11.9074 33.3576M11.9074 33.3576L11.9203 33.3601C11.9213 33.3603 11.9224 33.3605 11.9235 33.3608M11.9074 33.3576L11.9235 33.3608M11.9235 33.3608C12.4817 33.4532 13.0429 33.4998 13.5995 33.4998C13.955 33.4998 14.3091 33.4811 14.6605 33.4437L11.9235 33.3608ZM23.6579 25.3172C23.2861 26.9759 22.4917 28.5506 21.3594 29.8686C20.2272 31.1864 18.7922 32.2062 17.2105 32.8214M23.6579 25.3172L17.2105 32.8214M17.2105 32.8214C16.3888 33.1408 15.53 33.3502 14.6605 33.4437L17.2105 32.8214Z" stroke="#2A2A2C"/>
<path d="M16.6853 12.102L16.6854 12.1018C16.6896 12.0936 16.6975 12.0889 16.7061 12.0889C16.7147 12.0889 16.7227 12.0936 16.7268 12.1018C17.2186 13.0789 17.8632 13.9648 18.6421 14.7371C19.421 15.5094 20.3131 16.1458 21.2932 16.6293C21.3018 16.6337 21.3071 16.6418 21.3071 16.6527C21.3071 16.6588 21.3055 16.6632 21.3035 16.6665C21.3015 16.6697 21.299 16.672 21.2955 16.6737L21.2941 16.6744C20.3136 17.1579 19.4213 17.7945 18.6421 18.5671C17.863 19.3384 17.2185 20.2256 16.7269 21.2008L16.7268 21.201C16.7227 21.2093 16.7147 21.214 16.7061 21.214C16.6975 21.214 16.6896 21.2093 16.6854 21.201L16.6851 21.2003C16.1923 20.2254 15.5493 19.3396 14.7701 18.5671C13.9914 17.7949 13.1007 17.1584 12.1204 16.6749C12.1149 16.672 12.1117 16.6687 12.1098 16.6656C12.1079 16.6625 12.1064 16.6585 12.1064 16.6527C12.1064 16.6429 12.1121 16.6347 12.1194 16.6311L12.12 16.6308C13.1003 16.146 13.9912 15.5095 14.7701 14.7371C15.5492 13.9646 16.1937 13.0774 16.6853 12.102Z" stroke="#2A2A2C"/>
</svg>
